<svg id="Layer_1" data-name="Layer 1" xmlns="http://www.w3.org/2000/svg" xmlns:xlink="http://www.w3.org/1999/xlink" viewBox="0 0 877.5 877.5"><defs><style>.cls-1,.cls-3{fill:none;}.cls-1,.cls-2,.cls-3{stroke-miterlimit:10;}.cls-1{stroke-width:90px;stroke:url(#Degradado_sin_nombre_9);}.cls-2{fill:url(#Degradado_sin_nombre_2);stroke:url(#Degradado_sin_nombre_2-2);}.cls-3{stroke-linecap:round;stroke-width:50px;stroke:url(#Degradado_sin_nombre_9-2);}</style><linearGradient id="Degradado_sin_nombre_9" y1="438.75" x2="877.5" y2="438.75" gradientUnits="userSpaceOnUse"><stop offset="0" stop-color="#ed2224"/><stop offset="1" stop-color="#851618"/></linearGradient><linearGradient id="Degradado_sin_nombre_2" x1="333.63" y1="456.73" x2="664.37" y2="456.73" gradientUnits="userSpaceOnUse"><stop offset="0" stop-color="#eb2627"/><stop offset="1" stop-color="#83181a"/></linearGradient><linearGradient id="Degradado_sin_nombre_2-2" x1="333.13" y1="456.73" x2="664.87" y2="456.73" xlink:href="#Degradado_sin_nombre_2"/><linearGradient id="Degradado_sin_nombre_9-2" x1="299.2" y1="698.83" x2="698.8" y2="698.83" xlink:href="#Degradado_sin_nombre_9"/></defs><circle class="cls-1" cx="438.75" cy="438.75" r="393.75"/><path class="cls-2" d="M527.64,664.4,652.79,537.52a40.23,40.23,0,0,0,1-55.48h0A40.21,40.21,0,0,0,596,480.51L545,530.44V277.3a40.21,40.21,0,0,0-40.22-40.22H493.26A40.21,40.21,0,0,0,453,277.3V530.44L402,480.51A40.21,40.21,0,0,0,344.25,482h0a40.23,40.23,0,0,0,1,55.48L470.36,664.4A40.23,40.23,0,0,0,527.64,664.4Z" transform="translate(-60.25 -58.98)"/><path class="cls-3" d="M673.8,662.75c0,39.85-38.83,72.16-86.72,72.16H410.92c-47.89,0-86.72-32.31-86.72-72.16" transform="translate(-60.25 -58.98)"/></svg>